<svg xmlns="http://www.w3.org/2000/svg" viewBox="0 0 640 380" font-family="system-ui,Arial"><rect width="640" height="380" fill="white"/><text x="320.0" y="26" font-size="16" font-weight="bold" text-anchor="middle">Overall pass rate by model</text><text x="16" y="170.0" font-size="11" text-anchor="middle" transform="rotate(-90 16 170.0)">pass rate</text><line x1="60" y1="290" x2="620" y2="290" stroke="#333"/><line x1="60" y1="50" x2="60" y2="290" stroke="#333"/><rect x="84.5" y="50.0" width="91.0" height="240.0" fill="#16213e"/><text x="130.0" y="44.0" font-size="11" text-anchor="middle">1.00</text><text x="130.0" y="306.0" font-size="10" text-anchor="middle" transform="rotate(20 130.0 306.0)">reference-golden/direct</text><rect x="224.5" y="50.0" width="91.0" height="240.0" fill="#0f3460"/><text x="270.0" y="44.0" font-size="11" text-anchor="middle">1.00</text><text x="270.0" y="306.0" font-size="10" text-anchor="middle" transform="rotate(20 270.0 306.0)">synthetic-high/direct</text><rect x="364.5" y="63.3" width="91.0" height="226.7" fill="#533483"/><text x="410.0" y="57.3" font-size="11" text-anchor="middle">0.94</text><text x="410.0" y="306.0" font-size="10" text-anchor="middle" transform="rotate(20 410.0 306.0)">synthetic-mid/direct</text><rect x="504.5" y="103.3" width="91.0" height="186.7" fill="#e94560"/><text x="550.0" y="97.3" font-size="11" text-anchor="middle">0.78</text><text x="550.0" y="306.0" font-size="10" text-anchor="middle" transform="rotate(20 550.0 306.0)">synthetic-low/direct</text></svg>