<svg xmlns="http://www.w3.org/2000/svg" viewBox="0 0 640 380" font-family="system-ui,Arial"><rect width="640" height="380" fill="white"/><text x="320.0" y="26" font-size="16" font-weight="bold" text-anchor="middle">Pass rate by category</text><text x="16" y="170.0" font-size="11" text-anchor="middle" transform="rotate(-90 16 170.0)">pass rate</text><line x1="60" y1="290" x2="620" y2="290" stroke="#333"/><line x1="60" y1="50" x2="60" y2="290" stroke="#333"/><rect x="74.0" y="50.0" width="52.0" height="240.0" fill="#16213e"/><text x="100.0" y="44.0" font-size="11" text-anchor="middle">1.00</text><text x="100.0" y="306.0" font-size="10" text-anchor="middle" transform="rotate(20 100.0 306.0)">arithmetic</text><rect x="154.0" y="50.0" width="52.0" height="240.0" fill="#0f3460"/><text x="180.0" y="44.0" font-size="11" text-anchor="middle">1.00</text><text x="180.0" y="306.0" font-size="10" text-anchor="middle" transform="rotate(20 180.0 306.0)">communication</text><rect x="234.0" y="50.0" width="52.0" height="240.0" fill="#533483"/><text x="260.0" y="44.0" font-size="11" text-anchor="middle">1.00</text><text x="260.0" y="306.0" font-size="10" text-anchor="middle" transform="rotate(20 260.0 306.0)">control</text><rect x="314.0" y="50.0" width="52.0" height="240.0" fill="#e94560"/><text x="340.0" y="44.0" font-size="11" text-anchor="middle">1.00</text><text x="340.0" y="306.0" font-size="10" text-anchor="middle" transform="rotate(20 340.0 306.0)">dsp</text><rect x="394.0" y="50.0" width="52.0" height="240.0" fill="#2a9d8f"/><text x="420.0" y="44.0" font-size="11" text-anchor="middle">1.00</text><text x="420.0" y="306.0" font-size="10" text-anchor="middle" transform="rotate(20 420.0 306.0)">fsm</text><rect x="474.0" y="50.0" width="52.0" height="240.0" fill="#e9c46a"/><text x="500.0" y="44.0" font-size="11" text-anchor="middle">1.00</text><text x="500.0" y="306.0" font-size="10" text-anchor="middle" transform="rotate(20 500.0 306.0)">memory</text><rect x="554.0" y="50.0" width="52.0" height="240.0" fill="#16213e"/><text x="580.0" y="44.0" font-size="11" text-anchor="middle">1.00</text><text x="580.0" y="306.0" font-size="10" text-anchor="middle" transform="rotate(20 580.0 306.0)">processor</text></svg>